
<svg aria-hidden="true" style="position: absolute; width: 0; height: 0; overflow: hidden;" version="1.1" xmlns="http://www.w3.org/2000/svg" xmlns:xlink="http://www.w3.org/1999/xlink">
<defs>
<symbol id="icon-menu" viewBox="0 0 32 32">
<path d="M4 24v-2.222h24v2.222h-24zM4 17.111v-2.222h24v2.222h-24zM4 10.222v-2.222h24v2.222h-24z"></path>
</symbol>
<symbol id="icon-close" viewBox="0 0 32 32">
<path d="M8.378 25.178l-1.555-1.555 7.622-7.622-7.622-7.622 1.555-1.555 7.622 7.622 7.622-7.622 1.555 1.555-7.622 7.622 7.622 7.622-1.555 1.555-7.622-7.622-7.622 7.622z"></path>
</symbol>
<symbol id="icon-chevron-left" viewBox="0 0 32 32">
<path d="M18.689 24l-8.022-8.022 8.022-8.022 1.578 1.578-6.444 6.444 6.444 6.445-1.578 1.578z"></path>
</symbol>
<symbol id="icon-chevron-right" viewBox="0 0 32 32">
<path d="M17.378 15.978l-6.444-6.444 1.578-1.578 8.022 8.022-8.022 8.022-1.578-1.578 6.444-6.445z"></path>
</symbol>
<symbol id="icon-chevron-up" viewBox="0 0 32 32">
<path d="M9.556 20.322l-1.556-1.556 8-8 8 8-1.556 1.556-6.444-6.433-6.444 6.433z"></path>
</symbol>
<symbol id="icon-chevron-down" viewBox="0 0 32 32">
<path d="M16 20.233l-8-8 1.556-1.556 6.444 6.433 6.444-6.433 1.556 1.556-8 8z"></path>
</symbol>
<symbol id="icon-search" viewBox="0 0 32 32">
<path d="M26.4 27.978l-8.644-8.644q-1 0.844-2.321 1.322t-2.812 0.478q-3.615 0-6.119-2.506t-2.504-6.072 2.506-6.072 6.083-2.506 6.072 2.506 2.495 6.076q0 1.441-0.467 2.763t-1.356 2.433l8.667 8.622-1.6 1.6zM12.6 18.911q2.639 0 4.486-1.861t1.847-4.494-1.847-4.495-4.486-1.861q-2.657 0-4.518 1.861t-1.86 4.495 1.86 4.494 4.518 1.861z"></path>
</symbol>
<symbol id="icon-person" viewBox="0 0 32 32">
<path d="M16 15.978q-2.2 0-3.656-1.455t-1.455-3.656 1.455-3.656 3.656-1.455 3.656 1.455 1.455 3.656-1.455 3.656-3.656 1.455zM5.333 26.667v-3.333q0-1.222 0.617-2.139t1.606-1.394q2.178-1.011 4.255-1.517t4.189-0.506 4.178 0.517 4.245 1.506q1.011 0.478 1.628 1.394t0.617 2.139v3.333h-21.333z"></path>
</symbol>
</defs>
</svg>
